<svg xmlns="http://www.w3.org/2000/svg" width="16" height="16"><filter id="a" width="1" height="1" x="0" y="0"><feColorMatrix color-interpolation-filters="sRGB" values="0 0 0 0 1 0 0 0 0 1 0 0 0 0 1 0 0 0 1 0"/></filter><path d="M3 0C1.355 0 0 1.355 0 3v2.031h1V11H0v2c0 1.645 1.355 3 3 3h2v-1h6v1h2c1.645 0 3-1.355 3-3v-2h-1V5.031h1V3c0-1.645-1.355-3-3-3h-2v1H5V0Zm0 3h10v10H3Zm2.389 1.004A1.5 1.5 0 0 0 4 5.5a1.5 1.5 0 0 0 1 1.412V9.09a1.5 1.5 0 0 0-1 1.41 1.5 1.5 0 0 0 2.904.5h2.192A1.5 1.5 0 0 0 12 10.5a1.5 1.5 0 0 0-1-1.41V6.91a1.5 1.5 0 0 0 1-1.41 1.5 1.5 0 0 0-1.682-1.488A1.5 1.5 0 0 0 9.096 5H6.91a1.5 1.5 0 0 0-1.521-.996M6.91 6h2.186a1.5 1.5 0 0 0 .904.91v2.18a1.5 1.5 0 0 0-.904.91H6.904A1.5 1.5 0 0 0 6 9.09V6.912A1.5 1.5 0 0 0 6.91 6"/></svg>