<svg xmlns="http://www.w3.org/2000/svg" xmlns:xlink="http://www.w3.org/1999/xlink" width="128" height="128"><defs><radialGradient id="s" gradientUnits="userSpaceOnUse" cx="134.2" cy="222.988" fx="134.2" fy="222.988" r="2" gradientTransform="matrix(6 0 0 6 -697.198 -1325.927)"><stop offset="0" stop-color="#fff"/><stop offset=".4" stop-color="#fff"/><stop offset="1" stop-color="#f6f5f4"/></radialGradient><radialGradient id="t" gradientUnits="userSpaceOnUse" cx="134.2" cy="222.988" fx="134.2" fy="222.988" r="2" gradientTransform="matrix(6 0 0 6 -697.198 -1237.927)"><stop offset="0" stop-color="#fff"/><stop offset=".4" stop-color="#fff"/><stop offset="1" stop-color="#f6f5f4"/></radialGradient><radialGradient id="u" gradientUnits="userSpaceOnUse" cx="134.2" cy="222.988" fx="134.2" fy="222.988" r="2" gradientTransform="matrix(4 0 0 4 -452.799 -813.952)"><stop offset="0" stop-color="#fff"/><stop offset=".4" stop-color="#fff"/><stop offset="1" stop-color="#f6f5f4"/></radialGradient><radialGradient id="v" gradientUnits="userSpaceOnUse" cx="134.2" cy="222.988" fx="134.2" fy="222.988" r="2" gradientTransform="matrix(4 0 0 4 -452.799 -853.952)"><stop offset="0" stop-color="#fff"/><stop offset=".4" stop-color="#fff"/><stop offset="1" stop-color="#f6f5f4"/></radialGradient><radialGradient id="w" gradientUnits="userSpaceOnUse" cx="134.2" cy="222.988" fx="134.2" fy="222.988" r="2" gradientTransform="matrix(6 0 0 6 -785.198 -1325.927)"><stop offset="0" stop-color="#fff"/><stop offset=".4" stop-color="#fff"/><stop offset="1" stop-color="#f6f5f4"/></radialGradient><radialGradient id="x" gradientUnits="userSpaceOnUse" cx="134.2" cy="222.988" fx="134.2" fy="222.988" r="2" gradientTransform="matrix(6 0 0 6 -785.198 -1237.927)"><stop offset="0" stop-color="#fff"/><stop offset=".4" stop-color="#fff"/><stop offset="1" stop-color="#f6f5f4"/></radialGradient><radialGradient id="y" gradientUnits="userSpaceOnUse" cx="134.2" cy="222.988" fx="134.2" fy="222.988" r="2" gradientTransform="matrix(4 0 0 4 -492.799 -853.952)"><stop offset="0" stop-color="#fff"/><stop offset=".4" stop-color="#fff"/><stop offset="1" stop-color="#f6f5f4"/></radialGradient><radialGradient id="z" gradientUnits="userSpaceOnUse" cx="134.2" cy="222.988" fx="134.2" fy="222.988" r="2" gradientTransform="matrix(4 0 0 4 -492.799 -813.952)"><stop offset="0" stop-color="#fff"/><stop offset=".4" stop-color="#fff"/><stop offset="1" stop-color="#f6f5f4"/></radialGradient><radialGradient id="b" gradientUnits="userSpaceOnUse" cx="134.2" cy="222.988" fx="134.2" fy="222.988" r="2" gradientTransform="matrix(6 0 0 6 -697.198 -1325.927)"><stop offset="0" stop-color="#fff"/><stop offset=".4" stop-color="#fff"/><stop offset="1" stop-color="#f6f5f4"/></radialGradient><radialGradient id="c" gradientUnits="userSpaceOnUse" cx="134.2" cy="222.988" fx="134.2" fy="222.988" r="2" gradientTransform="matrix(6 0 0 6 -697.198 -1237.927)"><stop offset="0" stop-color="#fff"/><stop offset=".4" stop-color="#fff"/><stop offset="1" stop-color="#f6f5f4"/></radialGradient><radialGradient id="d" gradientUnits="userSpaceOnUse" cx="134.2" cy="222.988" fx="134.2" fy="222.988" r="2" gradientTransform="matrix(4 0 0 4 -452.799 -813.952)"><stop offset="0" stop-color="#fff"/><stop offset=".4" stop-color="#fff"/><stop offset="1" stop-color="#f6f5f4"/></radialGradient><radialGradient id="e" gradientUnits="userSpaceOnUse" cx="134.2" cy="222.988" fx="134.2" fy="222.988" r="2" gradientTransform="matrix(4 0 0 4 -452.799 -853.952)"><stop offset="0" stop-color="#fff"/><stop offset=".4" stop-color="#fff"/><stop offset="1" stop-color="#f6f5f4"/></radialGradient><radialGradient id="f" gradientUnits="userSpaceOnUse" cx="134.2" cy="222.988" fx="134.2" fy="222.988" r="2" gradientTransform="matrix(6 0 0 6 -785.198 -1325.927)"><stop offset="0" stop-color="#fff"/><stop offset=".4" stop-color="#fff"/><stop offset="1" stop-color="#f6f5f4"/></radialGradient><radialGradient id="g" gradientUnits="userSpaceOnUse" cx="134.2" cy="222.988" fx="134.2" fy="222.988" r="2" gradientTransform="matrix(6 0 0 6 -785.198 -1237.927)"><stop offset="0" stop-color="#fff"/><stop offset=".4" stop-color="#fff"/><stop offset="1" stop-color="#f6f5f4"/></radialGradient><radialGradient id="h" gradientUnits="userSpaceOnUse" cx="134.2" cy="222.988" fx="134.2" fy="222.988" r="2" gradientTransform="matrix(4 0 0 4 -492.799 -853.952)"><stop offset="0" stop-color="#fff"/><stop offset=".4" stop-color="#fff"/><stop offset="1" stop-color="#f6f5f4"/></radialGradient><radialGradient id="i" gradientUnits="userSpaceOnUse" cx="134.2" cy="222.988" fx="134.2" fy="222.988" r="2" gradientTransform="matrix(4 0 0 4 -492.799 -813.952)"><stop offset="0" stop-color="#fff"/><stop offset=".4" stop-color="#fff"/><stop offset="1" stop-color="#f6f5f4"/></radialGradient><clipPath id="a"><path d="M0 0h128v128H0z"/></clipPath><g id="l" clip-path="url(#a)"><path d="M84 84l24 24M84 44l24-24M44 84l-24 24M44 44L20 20M44 44h40v40H44zm0 0" fill="none" stroke-width="8" stroke="#f6f5f4"/><path d="M20 20h88v88H20zm0 0" fill="none" stroke-width="8" stroke="#f6f5f4"/><path d="M98.5 22v2h-69v-2zm0 0" fill="#d5d3cf"/><path d="M120 20c0 6.629-5.371 12-12 12-1.848 0-3.223-.094-5.164-1.164-1.094-1.727-3.55-4.586-5.668-5.668C96.094 23.223 96 21.852 96 20c0-6.629 5.371-12 12-12s12 5.371 12 12zm0 0" fill="#d5d3cf"/><path d="M110 31h2v69h-2zm0 0" fill="#d5d3cf"/><path d="M120 108c0 6.629-5.371 12-12 12s-12-5.371-12-12 5.371-12 12-12 12 5.371 12 12zm0 0M79 86v2H49v-2zm0 0" fill="#d5d3cf"/><path d="M99.605 102.426l-1.414 1.414-15-15 1.414-1.414zm0 0M103.059 27.793l1.414 1.414-15 15-1.414-1.414zm0 0" fill="#d5d3cf"/><path d="M120 18c0 6.629-5.371 12-12 12s-12-5.371-12-12 5.371-12 12-12 12 5.371 12 12zm0 0" fill="url(#b)"/><path d="M86 50h2v26h-2zm0 0M79 46v2H49v-2zm0 0" fill="#d5d3cf"/><path d="M92 44a8 8 0 1 1-16 0 8 8 0 0 1 16 0zm0 0M98.5 110v2h-69v-2zm0 0" fill="#d5d3cf"/><path d="M120 106c0 6.629-5.371 12-12 12s-12-5.371-12-12 5.371-12 12-12 12 5.371 12 12zm0 0" fill="url(#c)"/><path d="M92 84c0 .668 0 1-.234 1.93-1.164.593-4.766 4.543-5.79 5.824C85.477 92 84.685 92 84 92a8 8 0 1 1 8-8zm0 0" fill="#d5d3cf"/><path d="M92 82a8 8 0 1 1-16 0 8 8 0 0 1 16 0zm0 0" fill="url(#d)"/><path d="M92 42a8 8 0 1 1-16 0 8 8 0 0 1 16 0zm0 0" fill="url(#e)"/><path d="M22 31h2v69h-2zm0 0" fill="#d5d3cf"/><path d="M32 108c0 6.629-5.371 12-12 12s-12-5.371-12-12 5.371-12 12-12 12 5.371 12 12zm0 0M46 50h2v26h-2zm0 0" fill="#d5d3cf"/><path d="M52 44a8 8 0 1 1-16 0 8 8 0 0 1 16 0zm0 0M43.586 87.586L45 89l-15 15-1.414-1.414zm0 0M7.91 20c0 6.629 5.375 12 12 12 1.852 0 3.223-.094 5.168-1.164 1.09-1.727 3.547-4.586 5.668-5.668 1.07-1.945 1.164-3.316 1.164-5.168 0-6.629-5.37-12-12-12-6.625 0-12 5.371-12 12zm0 0" fill="#d5d3cf"/><path d="M40.078 42.953l-1.414 1.414-15-15 1.414-1.414zm0 0" fill="#d5d3cf"/><path d="M32 18c0 6.629-5.371 12-12 12S8 24.629 8 18 13.371 6 20 6s12 5.371 12 12zm0 0" fill="url(#f)"/><path d="M32 106c0 6.629-5.371 12-12 12s-12-5.371-12-12 5.371-12 12-12 12 5.371 12 12zm0 0" fill="url(#g)"/><path d="M52 42a8 8 0 1 1-16 0 8 8 0 0 1 16 0zm0 0" fill="url(#h)"/><path d="M36 84c0 .668 0 1 .234 1.93 1.164.593 4.766 4.543 5.79 5.824.5.246 1.292.246 1.976.246a8 8 0 1 0-8-8zm0 0" fill="#d5d3cf"/><path d="M52 82a8 8 0 1 1-16 0 8 8 0 0 1 16 0zm0 0" fill="url(#i)"/></g><clipPath id="j"><path d="M0 0h128v128H0z"/></clipPath><filter id="k" filterUnits="objectBoundingBox" x="0%" y="0%" width="100%" height="100%"><feColorMatrix in="SourceGraphic" values="0 0 0 0 1 0 0 0 0 1 0 0 0 0 1 0 0 0 1 0"/></filter><g id="m" clip-path="url(#j)" filter="url(#k)"><use xlink:href="#l"/></g><mask id="B"><use xlink:href="#m"/></mask><mask id="r"><g filter="url(#k)"><path fill-opacity=".8" d="M0 0h128v128H0z"/></g></mask><linearGradient id="o" gradientUnits="userSpaceOnUse" x1="300" y1="235" x2="428" y2="235" gradientTransform="matrix(0 .37 -.98462 0 295.385 -30.36)"><stop offset="0" stop-color="#f9f06b"/><stop offset="1" stop-color="#f5c211"/></linearGradient><clipPath id="n"><path d="M0 0h128v128H0z"/></clipPath><g id="q" clip-path="url(#n)"><path d="M128 80.64V128H0V80.64zm0 0" fill="url(#o)"/><path d="M13.309 80.64L60.664 128H81.88l-47.36-47.36zm42.421 0L103.094 128h21.215L76.945 80.64zm42.43 0L128 110.48V89.27l-8.629-8.63zM0 88.548v21.215L18.238 128h21.215zm0 0"/></g><clipPath id="p"><path d="M0 0h128v128H0z"/></clipPath><g id="A" clip-path="url(#p)"><use xlink:href="#q" mask="url(#r)"/></g></defs><path d="M84 84l24 24M84 44l24-24M44 84l-24 24M44 44L20 20M44 44h40v40H44zm0 0" fill="none" stroke-width="8" stroke="#f6f5f4"/><path d="M20 20h88v88H20zm0 0" fill="none" stroke-width="8" stroke="#f6f5f4"/><path d="M98.5 22v2h-69v-2zm0 0" fill="#d5d3cf"/><path d="M120 20c0 6.629-5.371 12-12 12-1.848 0-3.223-.094-5.164-1.164-1.094-1.727-3.55-4.586-5.668-5.668C96.094 23.223 96 21.852 96 20c0-6.629 5.371-12 12-12s12 5.371 12 12zm0 0" fill="#d5d3cf"/><path d="M110 31h2v69h-2zm0 0" fill="#d5d3cf"/><path d="M120 108c0 6.629-5.371 12-12 12s-12-5.371-12-12 5.371-12 12-12 12 5.371 12 12zm0 0M79 86v2H49v-2zm0 0" fill="#d5d3cf"/><path d="M99.605 102.426l-1.414 1.414-15-15 1.414-1.414zm0 0M103.059 27.793l1.414 1.414-15 15-1.414-1.414zm0 0" fill="#d5d3cf"/><path d="M120 18c0 6.629-5.371 12-12 12s-12-5.371-12-12 5.371-12 12-12 12 5.371 12 12zm0 0" fill="url(#s)"/><path d="M86 50h2v26h-2zm0 0M79 46v2H49v-2zm0 0" fill="#d5d3cf"/><path d="M92 44a8 8 0 1 1-16 0 8 8 0 0 1 16 0zm0 0M98.5 110v2h-69v-2zm0 0" fill="#d5d3cf"/><path d="M120 106c0 6.629-5.371 12-12 12s-12-5.371-12-12 5.371-12 12-12 12 5.371 12 12zm0 0" fill="url(#t)"/><path d="M92 84c0 .668 0 1-.234 1.93-1.164.593-4.766 4.543-5.79 5.824C85.477 92 84.685 92 84 92a8 8 0 1 1 8-8zm0 0" fill="#d5d3cf"/><path d="M92 82a8 8 0 1 1-16 0 8 8 0 0 1 16 0zm0 0" fill="url(#u)"/><path d="M92 42a8 8 0 1 1-16 0 8 8 0 0 1 16 0zm0 0" fill="url(#v)"/><path d="M22 31h2v69h-2zm0 0" fill="#d5d3cf"/><path d="M32 108c0 6.629-5.371 12-12 12s-12-5.371-12-12 5.371-12 12-12 12 5.371 12 12zm0 0M46 50h2v26h-2zm0 0" fill="#d5d3cf"/><path d="M52 44a8 8 0 1 1-16 0 8 8 0 0 1 16 0zm0 0M43.586 87.586L45 89l-15 15-1.414-1.414zm0 0M7.91 20c0 6.629 5.375 12 12 12 1.852 0 3.223-.094 5.168-1.164 1.09-1.727 3.547-4.586 5.668-5.668 1.07-1.945 1.164-3.316 1.164-5.168 0-6.629-5.37-12-12-12-6.625 0-12 5.371-12 12zm0 0" fill="#d5d3cf"/><path d="M40.078 42.953l-1.414 1.414-15-15 1.414-1.414zm0 0" fill="#d5d3cf"/><path d="M32 18c0 6.629-5.371 12-12 12S8 24.629 8 18 13.371 6 20 6s12 5.371 12 12zm0 0" fill="url(#w)"/><path d="M32 106c0 6.629-5.371 12-12 12s-12-5.371-12-12 5.371-12 12-12 12 5.371 12 12zm0 0" fill="url(#x)"/><path d="M52 42a8 8 0 1 1-16 0 8 8 0 0 1 16 0zm0 0" fill="url(#y)"/><path d="M36 84c0 .668 0 1 .234 1.93 1.164.593 4.766 4.543 5.79 5.824.5.246 1.292.246 1.976.246a8 8 0 1 0-8-8zm0 0" fill="#d5d3cf"/><path d="M52 82a8 8 0 1 1-16 0 8 8 0 0 1 16 0zm0 0" fill="url(#z)"/><use xlink:href="#A" mask="url(#B)"/></svg>