<?xml version="1.0" encoding="UTF-8" standalone="no"?>
<svg xmlns="http://www.w3.org/2000/svg" version="1.0" 
     x="0.0000000" y="0.0000000" width="252.32" height="252.32" 
     viewBox="0 0 252.32 252.32" xml:space="preserve"
     id="translucent-fedora-logo-with-radial-gradient">
     <g id="main-group">
         <g id="radial-gradient-group">

             <radialGradient cx="115.89890" cy="133.10451" r="154.62019" fx="115.89890" fy="133.10451" id="radial-gradient" gradientUnits="userSpaceOnUse">
                 <stop style="stop-color: #000000; stop-opacity: 0.0;" offset="0.0" id="translucent-stop-color"/>
                 <stop style="stop-color: #0068c9; stop-opacity: 1.0;" offset="1.0" id="opaque-blue-stop-color"/>
             </radialGradient>

             <path d="M 252.31700,126.16300 C 252.31700,56.485000 195.83500,0.0000000 126.16000,0.0000000 C 56.517000,0.0000000 0.051000000,56.437000 0.0030000000,126.07200 L 0.0000000,126.06600 L 0.0000000,223.69600 L 0.0030000000,223.70400 C 0.041000000,239.51400 12.864000,252.31000 28.688000,252.31000 C 28.733000,252.31000 28.776000,252.30400 28.821000,252.30400 L 28.830000,252.31000 L 126.21100,252.31000 L 126.21100,252.31000 C 195.86100,252.28100 252.31700,195.82000 252.31700,126.16300 z " style="fill:url(#radial-gradient)" id="speech-bubble"/>
         </g>
         <g id="f-script">
             <path d="M 163.20200,29.904000 C 130.49800,29.904000 103.98900,56.414000 103.98900,89.116000 C 103.98900,89.127000 103.98900,89.142000 103.98900,89.157000 L 103.98900,120.49600 L 72.746000,120.49600 C 72.741000,120.49600 72.741000,120.49600 72.738000,120.49600 C 40.035000,120.49600 13.526000,146.87700 13.526000,179.57700 C 13.526000,212.28200 40.036000,238.79100 72.738000,238.79100 C 105.43700,238.79100 131.94700,212.28200 131.94700,179.57700 C 131.94700,179.56500 131.94700,179.55400 131.94700,179.53600 L 131.94700,148.06700 L 163.18900,148.06700 C 163.19600,148.06700 163.19900,148.06700 163.20200,148.06700 C 195.90100,148.06700 222.41100,121.81600 222.41100,89.116000 C 222.41100,56.414000 195.90100,29.904000 163.20200,29.904000 z M 103.98900,179.63300 C 103.96400,196.86400 89.979000,210.83300 72.738000,210.83300 C 55.479000,210.83300 41.358000,196.84100 41.358000,179.58200 C 41.358000,162.31700 55.479000,148.06600 72.738000,148.06600 C 72.752000,148.06600 72.766000,148.06600 72.779000,148.06600 L 99.558000,148.06600 C 99.567000,148.06600 99.572000,148.06600 99.578000,148.06600 C 102.01600,148.06600 103.99300,150.03900 103.99300,152.47300 C 103.99300,152.47800 103.99000,152.47800 103.99000,152.48400 L 103.99000,179.63300 L 103.98900,179.63300 z M 163.19900,120.49600 C 163.18900,120.49600 163.17900,120.49600 163.17000,120.49600 L 136.37300,120.49600 C 136.36700,120.49600 136.36000,120.49600 136.35700,120.49600 C 133.91900,120.49600 131.94700,118.52400 131.94700,116.08400 L 131.94700,116.08300 L 131.94700,89.065000 C 131.97600,71.824000 145.95700,57.860000 163.19900,57.860000 C 180.45800,57.860000 194.58200,71.853000 194.58200,89.115000 C 194.58200,106.37500 180.45800,120.49600 163.19900,120.49600 z " style="fill:#0a57a4" id="f-script-path"/>
         </g>
         <path d="M 103.98900,120.49600 L 103.98900,89.156000 C 103.98900,89.142000 103.98900,89.127000 103.98900,89.115000 C 103.98900,56.413000 130.49800,29.903000 163.20200,29.903000 C 168.16300,29.903000 171.68800,30.462000 176.28000,31.664000 C 182.97700,33.420000 188.44600,38.906000 188.44900,45.292000 C 188.45200,53.012000 182.84800,58.624000 174.47300,58.624000 C 170.48300,58.624000 169.04100,57.860000 163.19900,57.860000 C 145.95700,57.860000 131.97600,71.824000 131.94700,89.065000 L 131.94700,116.08200 L 131.94700,116.08300 C 131.94700,118.52300 133.91900,120.49500 136.35700,120.49500 C 136.36000,120.49500 136.36700,120.49500 136.37300,120.49500 L 156.89500,120.49500 C 164.54300,120.49500 170.71900,126.61800 170.72500,134.28600 C 170.72500,141.95700 164.54000,148.06600 156.89500,148.06600 L 131.94700,148.06600 L 131.94700,179.53500 C 131.94700,179.55300 131.94700,179.56400 131.94700,179.58200 C 131.94700,212.28100 105.43700,238.79000 72.738000,238.79000 C 67.776000,238.79000 64.251000,238.23100 59.659000,237.02800 C 52.962000,235.27300 47.491000,229.78400 47.488000,223.40000 C 47.488000,215.68200 53.088000,210.06800 61.467000,210.06800 C 65.453000,210.06800 66.899000,210.83300 72.738000,210.83300 C 89.980000,210.83300 103.96500,196.86800 103.99200,179.63300 C 103.99200,179.63300 103.99200,152.47900 103.99200,152.47400 C 103.99200,150.03900 102.01500,148.06700 99.577000,148.06700 C 99.574000,148.06700 99.571000,148.06700 99.566000,148.06700 L 79.045000,148.06700 C 71.395000,148.06700 65.214000,141.96400 65.214000,134.29100 C 65.212000,126.57500 71.459000,120.49700 79.190000,120.49700 L 103.98900,120.49700 L 103.98900,120.49600 z " style="fill:#ffffff" id="blue-inifity-connectors"/>
     </g>
 </svg>
